<?xml version="1.0" encoding="UTF-8" standalone="no"?>
<!-- Created with Inkscape (http://www.inkscape.org/) -->

<svg
   width="64"
   height="64"
   viewBox="0 0 16.933333 16.933334"
   version="1.1"
   id="svg5"
   sodipodi:docname="close_dim_hover.svg"
   inkscape:version="1.1.2 (0a00cf5339, 2022-02-04, custom)"
   xmlns:inkscape="http://www.inkscape.org/namespaces/inkscape"
   xmlns:sodipodi="http://sodipodi.sourceforge.net/DTD/sodipodi-0.dtd"
   xmlns="http://www.w3.org/2000/svg"
   xmlns:svg="http://www.w3.org/2000/svg">
  <sodipodi:namedview
     id="namedview7"
     pagecolor="#505050"
     bordercolor="#ffffff"
     borderopacity="1"
     inkscape:pageshadow="0"
     inkscape:pageopacity="0"
     inkscape:pagecheckerboard="1"
     inkscape:document-units="mm"
     showgrid="false"
     width="64px"
     units="px"
     inkscape:zoom="12.671875"
     inkscape:cx="32.039457"
     inkscape:cy="32"
     inkscape:window-width="1920"
     inkscape:window-height="1080"
     inkscape:window-x="0"
     inkscape:window-y="0"
     inkscape:window-maximized="0"
     inkscape:current-layer="layer1" />
  <defs
     id="defs2" />
  <g
     inkscape:label="Layer 1"
     inkscape:groupmode="layer"
     id="layer1">
    <path
       id="path77"
       style="fill:#323232;fill-opacity:1;fill-rule:evenodd;stroke-width:1.21674"
       d="M 32 3.1113281 A 28.888528 28.888528 0 0 0 3.1113281 32 A 28.888528 28.888528 0 0 0 32 60.888672 A 28.888528 28.888528 0 0 0 60.888672 32 A 28.888528 28.888528 0 0 0 32 3.1113281 z M 17.728516 15.228516 C 18.367202 15.228516 19.006699 15.471543 19.496094 15.960938 L 32 28.464844 L 44.503906 15.960938 C 44.993301 15.471543 45.632798 15.228516 46.271484 15.228516 C 46.910171 15.228516 47.549669 15.471543 48.039062 15.960938 C 49.017852 16.939726 49.017852 18.517304 48.039062 19.496094 L 35.535156 32 L 48.039062 44.503906 C 49.017852 45.482696 49.017852 47.060273 48.039062 48.039062 C 47.060273 49.017852 45.482696 49.017852 44.503906 48.039062 L 32 35.535156 L 19.496094 48.039062 C 18.517304 49.017852 16.939726 49.017852 15.960938 48.039062 C 14.982148 47.060274 14.982148 45.482696 15.960938 44.503906 L 28.464844 32 L 15.960938 19.496094 C 14.982148 18.517304 14.982148 16.939727 15.960938 15.960938 C 16.450332 15.471543 17.089829 15.228516 17.728516 15.228516 z "
       transform="scale(0.26458333)" />
  </g>
</svg>
