<?xml version="1.0" encoding="UTF-8" standalone="no"?>
<!-- Created with Inkscape (http://www.inkscape.org/) -->

<svg
   width="64"
   height="64"
   viewBox="0 0 16.933333 16.933334"
   version="1.1"
   id="svg5"
   sodipodi:docname="float_dim_hover.svg"
   inkscape:version="1.1.2 (0a00cf5339, 2022-02-04, custom)"
   xmlns:inkscape="http://www.inkscape.org/namespaces/inkscape"
   xmlns:sodipodi="http://sodipodi.sourceforge.net/DTD/sodipodi-0.dtd"
   xmlns="http://www.w3.org/2000/svg"
   xmlns:svg="http://www.w3.org/2000/svg">
  <sodipodi:namedview
     id="namedview7"
     pagecolor="#505050"
     bordercolor="#ffffff"
     borderopacity="1"
     inkscape:pageshadow="0"
     inkscape:pageopacity="0"
     inkscape:pagecheckerboard="1"
     inkscape:document-units="mm"
     showgrid="false"
     width="64px"
     units="px"
     inkscape:zoom="10.660604"
     inkscape:cx="27.484371"
     inkscape:cy="30.626782"
     inkscape:window-width="1920"
     inkscape:window-height="1080"
     inkscape:window-x="0"
     inkscape:window-y="0"
     inkscape:window-maximized="0"
     inkscape:current-layer="layer1" />
  <defs
     id="defs2" />
  <g
     inkscape:label="Layer 1"
     inkscape:groupmode="layer"
     id="layer1">
    <path
       id="path77"
       style="fill:#323232;fill-opacity:1;fill-rule:evenodd;stroke-width:1.21674"
       d="M 32 3.1113281 A 28.888528 28.888528 0 0 0 3.1113281 32 A 28.888528 28.888528 0 0 0 32 60.888672 A 28.888528 28.888528 0 0 0 60.888672 32 A 28.888528 28.888528 0 0 0 32 3.1113281 z M 20.943359 19.431641 L 43.056641 19.431641 C 43.893422 19.431641 44.568359 20.106578 44.568359 20.943359 L 44.568359 43.056641 C 44.568359 43.893422 43.893422 44.568359 43.056641 44.568359 L 20.943359 44.568359 C 20.106578 44.568359 19.431641 43.893422 19.431641 43.056641 L 19.431641 20.943359 C 19.431641 20.106578 20.106578 19.431641 20.943359 19.431641 z "
       transform="scale(0.26458333)" />
    <path
       style="fill:#323232;stroke-width:0.093951;fill-opacity:1"
       d="M 21.621664,31.986931 V 21.668566 H 31.986931 42.352197 V 31.986931 42.305295 H 31.986931 21.621664 Z"
       id="path861"
       transform="scale(0.26458333)" />
  </g>
</svg>
