<?xml version="1.0" encoding="UTF-8" standalone="no"?>
<!-- Created with Inkscape (http://www.inkscape.org/) -->

<svg
   width="64"
   height="64"
   viewBox="0 0 16.933333 16.933334"
   version="1.1"
   id="svg5"
   sodipodi:docname="stuck_dim.svg"
   inkscape:version="1.1.1 (3bf5ae0d25, 2021-09-20, custom)"
   xmlns:inkscape="http://www.inkscape.org/namespaces/inkscape"
   xmlns:sodipodi="http://sodipodi.sourceforge.net/DTD/sodipodi-0.dtd"
   xmlns="http://www.w3.org/2000/svg"
   xmlns:svg="http://www.w3.org/2000/svg">
  <sodipodi:namedview
     id="namedview7"
     pagecolor="#505050"
     bordercolor="#ffffff"
     borderopacity="1"
     inkscape:pageshadow="0"
     inkscape:pageopacity="0"
     inkscape:pagecheckerboard="1"
     inkscape:document-units="mm"
     showgrid="false"
     width="64px"
     units="px"
     inkscape:zoom="14.134061"
     inkscape:cx="20.871567"
     inkscape:cy="35.163284"
     inkscape:window-width="979"
     inkscape:window-height="1056"
     inkscape:window-x="12"
     inkscape:window-y="12"
     inkscape:window-maximized="0"
     inkscape:current-layer="layer1" />
  <defs
     id="defs2" />
  <g
     inkscape:label="Layer 1"
     inkscape:groupmode="layer"
     id="layer1">
    <path
       id="path77"
       style="fill:#323232;fill-opacity:1;fill-rule:evenodd;stroke-width:1.21674"
       d="M 32 3.1113281 A 28.888528 28.888528 0 0 0 3.1113281 32 A 28.888528 28.888528 0 0 0 32 60.888672 A 28.888528 28.888528 0 0 0 60.888672 32 A 28.888528 28.888528 0 0 0 32 3.1113281 z M 37.277344 13.123047 C 37.782417 13.358581 38.224449 13.988108 38.617188 14.380859 L 41.378906 17.140625 L 47.710938 23.474609 L 49.740234 25.503906 C 50.104188 25.867863 50.541285 26.219589 50.837891 26.640625 C 49.884947 27.005515 48.841687 27.228574 47.832031 27.361328 C 47.414322 27.416256 46.696655 27.310845 46.330078 27.494141 C 46.053122 27.632618 45.816592 27.9666 45.599609 28.183594 L 44.056641 29.726562 C 42.398354 31.384846 40.72229 33.02185 39.064453 34.679688 L 37.277344 36.464844 C 37.050891 36.691296 36.655059 36.963568 36.525391 37.259766 C 36.440461 37.453659 36.560425 37.766288 36.580078 37.96875 C 36.63264 38.509952 36.628906 39.047995 36.628906 39.591797 C 36.628906 40.984046 36.299126 42.260328 36.019531 43.611328 C 35.092976 42.958645 34.304037 41.936849 33.501953 41.134766 C 32.070123 39.702935 30.643334 38.262425 29.207031 36.833984 L 19.640625 46.505859 L 19.642578 46.507812 L 19.636719 46.509766 L 19.634766 46.511719 L 19.632812 46.509766 L 18.011719 46.957031 L 16.378906 47.40625 L 16.804688 45.769531 L 17.230469 44.132812 L 17.230469 44.130859 L 17.228516 44.130859 L 26.806641 34.449219 C 25.558789 33.202364 24.315959 31.948799 23.068359 30.701172 C 22.188978 29.82179 21.063146 28.95516 20.347656 27.939453 C 21.686479 27.559542 23.095469 27.293248 24.490234 27.291016 C 25.006065 27.290203 25.518261 27.327429 26.03125 27.378906 C 26.226321 27.398474 26.496191 27.502642 26.681641 27.412109 C 27.116845 27.199703 27.517991 26.616775 27.859375 26.275391 L 30.416016 23.71875 L 34.638672 19.496094 L 35.896484 18.238281 C 36.078564 18.056201 36.34837 17.861854 36.464844 17.628906 C 36.656098 17.246438 36.540662 16.482684 36.599609 16.044922 C 36.734068 15.046992 37.132168 14.106074 37.277344 13.123047 z "
       transform="scale(0.26458333)" />
  </g>
</svg>
