<?xml version="1.0" encoding="UTF-8" standalone="no"?>
<svg
   class="icon icon-tabler icon-tabler-volume"
   width="24"
   height="24"
   viewBox="0 0 24 24"
   stroke-width="2"
   stroke="currentColor"
   fill="none"
   stroke-linecap="round"
   stroke-linejoin="round"
   version="1.1"
   id="svg2271"
   sodipodi:docname="high.svg"
   inkscape:version="1.1.2 (0a00cf5339, 2022-02-04, custom)"
   xmlns:inkscape="http://www.inkscape.org/namespaces/inkscape"
   xmlns:sodipodi="http://sodipodi.sourceforge.net/DTD/sodipodi-0.dtd"
   xmlns="http://www.w3.org/2000/svg"
   xmlns:svg="http://www.w3.org/2000/svg">
  <defs
     id="defs2275" />
  <sodipodi:namedview
     id="namedview2273"
     pagecolor="#505050"
     bordercolor="#ffffff"
     borderopacity="1"
     inkscape:pageshadow="0"
     inkscape:pageopacity="0"
     inkscape:pagecheckerboard="1"
     showgrid="false"
     inkscape:zoom="36.041667"
     inkscape:cx="4.383815"
     inkscape:cy="12"
     inkscape:window-width="1896"
     inkscape:window-height="1026"
     inkscape:window-x="12"
     inkscape:window-y="42"
     inkscape:window-maximized="0"
     inkscape:current-layer="svg2271" />
  <path
     stroke="none"
     d="M0 0h24v24H0z"
     fill="none"
     id="path2263" />
  <path
     d="M15 8a5 5 0 0 1 0 8"
     id="path2265"
     style="stroke:#dddddd;stroke-opacity:1" />
  <path
     d="M17.7 5a9 9 0 0 1 0 14"
     id="path2267"
     style="stroke:#dddddd;stroke-opacity:1" />
  <path
     d="M6 15h-2a1 1 0 0 1 -1 -1v-4a1 1 0 0 1 1 -1h2l3.5 -4.5a0.8 .8 0 0 1 1.5 .5v14a0.8 .8 0 0 1 -1.5 .5l-3.5 -4.5"
     id="path2269"
     style="stroke:#dddddd;stroke-opacity:1" />
</svg>
